HIERARCHY
ROOT Hips
{
	OFFSET 0.000000 100.481300 0.000000
	CHANNELS 6 Xposition Yposition Zposition Xrotation Yrotation Zrotation 
	JOINT Spine
	{
		OFFSET -0.279200 12.230698 -2.892100
		CHANNELS 3 Xrotation Yrotation Zrotation
		JOINT Spine1
		{
			OFFSET -0.232667 10.192268 -1.242267
			CHANNELS 3 Xrotation Yrotation Zrotation
			JOINT Spine1_split
			{
				OFFSET -0.232667 10.192268 -1.242267
				CHANNELS 3 Xrotation Yrotation Zrotation
				JOINT Spine2
				{
					OFFSET -0.232667 10.192268 -1.242267
					CHANNELS 3 Xrotation Yrotation Zrotation
					JOINT Neck
					{
						OFFSET -0.418800 17.814194 8.416900
						CHANNELS 3 Xrotation Yrotation Zrotation
						JOINT Head
						{
							OFFSET 0.000000 7.031097 3.806800
							CHANNELS 3 Xrotation Yrotation Zrotation
							JOINT HeadTop_End
							{
								OFFSET 0.000000 24.646606 12.978600
								CHANNELS 3 Xrotation Yrotation Zrotation
								End Site
								{
									OFFSET 0.000000 0.000000 0.000000
								}
							}
						}
					}
					JOINT LeftShoulder
					{
						OFFSET 8.476499 7.247704 -3.868750
						CHANNELS 3 Xrotation Yrotation Zrotation
						JOINT LeftShoulder_split
						{
							OFFSET 8.476499 7.247704 -3.868750
							CHANNELS 3 Xrotation Yrotation Zrotation
							JOINT LeftArm
							{
								OFFSET 9.308998 -2.777710 0.208600
								CHANNELS 3 Xrotation Yrotation Zrotation
								JOINT LeftForeArm
								{
									OFFSET 29.972298 0.000000 0.000000
									CHANNELS 3 Xrotation Yrotation Zrotation
									JOINT LeftHand
									{
										OFFSET 26.026505 0.000000 0.000000
										CHANNELS 3 Xrotation Yrotation Zrotation
										JOINT LeftHandThumb1
										{
											OFFSET 12.240501 -7.147949 9.207150
											CHANNELS 3 Xrotation Yrotation Zrotation
											JOINT LeftHandThumb2
											{
												OFFSET 4.138618 -2.389435 2.389433
												CHANNELS 3 Xrotation Yrotation Zrotation
												JOINT LeftHandThumb3
												{
													OFFSET 2.726913 -1.574387 1.574386
													CHANNELS 3 Xrotation Yrotation Zrotation
													JOINT LeftHandThumb4
													{
														OFFSET 3.941010 -2.275345 2.275342
														CHANNELS 3 Xrotation Yrotation Zrotation
														End Site
														{
															OFFSET 0.000000 0.000000 0.000000
														}
													}
												}
											}
										}
										JOINT LeftHandIndex1
										{
											OFFSET 24.424698 -1.985611 5.953459
											CHANNELS 3 Xrotation Yrotation Zrotation
											JOINT LeftHandIndex2
											{
												OFFSET 6.426697 0.000000 0.000000
												CHANNELS 3 Xrotation Yrotation Zrotation
												JOINT LeftHandIndex3
												{
													OFFSET 5.337898 0.000000 0.000000
													CHANNELS 3 Xrotation Yrotation Zrotation
													JOINT LeftHandIndex4
													{
														OFFSET 4.409401 0.000000 0.000000
														CHANNELS 3 Xrotation Yrotation Zrotation
														End Site
														{
															OFFSET 0.000000 0.000000 0.000000
														}
													}
												}
											}
										}
										JOINT LeftHandMiddle1
										{
											OFFSET 23.810104 0.000000 0.000000
											CHANNELS 3 Xrotation Yrotation Zrotation
											JOINT LeftHandMiddle2
											{
												OFFSET 7.176498 0.000000 0.000000
												CHANNELS 3 Xrotation Yrotation Zrotation
												JOINT LeftHandMiddle3
												{
													OFFSET 6.774902 0.000000 0.000000
													CHANNELS 3 Xrotation Yrotation Zrotation
													JOINT LeftHandMiddle4
													{
														OFFSET 5.403328 0.000000 0.000000
														CHANNELS 3 Xrotation Yrotation Zrotation
														End Site
														{
															OFFSET 0.000000 0.000000 0.000000
														}
													}
												}
											}
										}
										JOINT LeftHandRing1
										{
											OFFSET 22.908401 -0.839279 -6.020567
											CHANNELS 3 Xrotation Yrotation Zrotation
											JOINT LeftHandRing2
											{
												OFFSET 6.337502 0.000000 0.000000
												CHANNELS 3 Xrotation Yrotation Zrotation
												JOINT LeftHandRing3
												{
													OFFSET 5.779297 0.000000 0.000000
													CHANNELS 3 Xrotation Yrotation Zrotation
													JOINT LeftHandRing4
													{
														OFFSET 4.965698 0.000000 0.000000
														CHANNELS 3 Xrotation Yrotation Zrotation
														End Site
														{
															OFFSET 0.000000 0.000000 0.000000
														}
													}
												}
											}
										}
										JOINT LeftHandPinky1
										{
											OFFSET 20.037003 -1.530319 -10.950146
											CHANNELS 3 Xrotation Yrotation Zrotation
											JOINT LeftHandPinky2
											{
												OFFSET 5.254700 0.000000 0.000000
												CHANNELS 3 Xrotation Yrotation Zrotation
												JOINT LeftHandPinky3
												{
													OFFSET 4.810204 0.000000 0.000000
													CHANNELS 3 Xrotation Yrotation Zrotation
													JOINT LeftHandPinky4
													{
														OFFSET 3.647202 0.000000 0.000000
														CHANNELS 3 Xrotation Yrotation Zrotation
														End Site
														{
															OFFSET 0.000000 0.000000 0.000000
														}
													}
												}
											}
										}
									}
								}
							}
						}
					}
					JOINT RightShoulder
					{
						OFFSET -7.570500 7.247704 -3.868750
						CHANNELS 3 Xrotation Yrotation Zrotation
						JOINT RightShoulder_split
						{
							OFFSET -7.570500 7.247704 -3.868750
							CHANNELS 3 Xrotation Yrotation Zrotation
							JOINT RightArm
							{
								OFFSET -9.308998 -2.777710 0.208500
								CHANNELS 3 Xrotation Yrotation Zrotation
								JOINT RightForeArm
								{
									OFFSET -29.972300 0.000000 0.000000
									CHANNELS 3 Xrotation Yrotation Zrotation
									JOINT RightHand
									{
										OFFSET -26.026505 0.000000 0.000000
										CHANNELS 3 Xrotation Yrotation Zrotation
										JOINT RightHandThumb1
										{
											OFFSET -12.240601 -7.148026 9.207092
											CHANNELS 3 Xrotation Yrotation Zrotation
											JOINT RightHandThumb2
											{
												OFFSET -4.138618 -2.389435 2.389433
												CHANNELS 3 Xrotation Yrotation Zrotation
												JOINT RightHandThumb3
												{
													OFFSET -2.726974 -1.574417 1.574421
													CHANNELS 3 Xrotation Yrotation Zrotation
													JOINT RightHandThumb4
													{
														OFFSET -3.941010 -2.275345 2.275343
														CHANNELS 3 Xrotation Yrotation Zrotation
														End Site
														{
															OFFSET 0.000000 0.000000 0.000000
														}
													}
												}
											}
										}
										JOINT RightHandIndex1
										{
											OFFSET -24.424698 -1.985657 5.953444
											CHANNELS 3 Xrotation Yrotation Zrotation
											JOINT RightHandIndex2
											{
												OFFSET -6.426697 0.000000 0.000000
												CHANNELS 3 Xrotation Yrotation Zrotation
												JOINT RightHandIndex3
												{
													OFFSET -5.337898 0.000000 0.000000
													CHANNELS 3 Xrotation Yrotation Zrotation
													JOINT RightHandIndex4
													{
														OFFSET -4.409401 0.000000 0.000000
														CHANNELS 3 Xrotation Yrotation Zrotation
														End Site
														{
															OFFSET 0.000000 0.000000 0.000000
														}
													}
												}
											}
										}
										JOINT RightHandMiddle1
										{
											OFFSET -23.810097 0.000000 0.000000
											CHANNELS 3 Xrotation Yrotation Zrotation
											JOINT RightHandMiddle2
											{
												OFFSET -7.176498 0.000000 0.000000
												CHANNELS 3 Xrotation Yrotation Zrotation
												JOINT RightHandMiddle3
												{
													OFFSET -6.774902 0.000000 0.000000
													CHANNELS 3 Xrotation Yrotation Zrotation
													JOINT RightHandMiddle4
													{
														OFFSET -5.403328 0.000000 0.000000
														CHANNELS 3 Xrotation Yrotation Zrotation
														End Site
														{
															OFFSET 0.000000 0.000000 0.000000
														}
													}
												}
											}
										}
										JOINT RightHandRing1
										{
											OFFSET -22.908302 -0.839325 -6.020576
											CHANNELS 3 Xrotation Yrotation Zrotation
											JOINT RightHandRing2
											{
												OFFSET -6.337502 0.000000 0.000000
												CHANNELS 3 Xrotation Yrotation Zrotation
												JOINT RightHandRing3
												{
													OFFSET -5.779297 0.000000 0.000000
													CHANNELS 3 Xrotation Yrotation Zrotation
													JOINT RightHandRing4
													{
														OFFSET -4.965698 0.000000 0.000000
														CHANNELS 3 Xrotation Yrotation Zrotation
														End Site
														{
															OFFSET 0.000000 0.000000 0.000000
														}
													}
												}
											}
										}
										JOINT RightHandPinky1
										{
											OFFSET -20.037003 -1.530334 -10.950259
											CHANNELS 3 Xrotation Yrotation Zrotation
											JOINT RightHandPinky2
											{
												OFFSET -5.254700 0.000000 0.000000
												CHANNELS 3 Xrotation Yrotation Zrotation
												JOINT RightHandPinky3
												{
													OFFSET -4.810204 0.000000 0.000000
													CHANNELS 3 Xrotation Yrotation Zrotation
													JOINT RightHandPinky4
													{
														OFFSET -3.647202 0.000000 0.000000
														CHANNELS 3 Xrotation Yrotation Zrotation
														End Site
														{
															OFFSET 0.000000 0.000000 0.000000
														}
													}
												}
											}
										}
									}
								}
							}
						}
					}
				}
			}
		}
	}
	JOINT LeftUpLeg
	{
		OFFSET 15.427100 -6.655098 0.678600
		CHANNELS 3 Xrotation Yrotation Zrotation
		JOINT LeftLeg
		{
			OFFSET 4.081073 -39.591068 13.024000
			CHANNELS 3 Xrotation Yrotation Zrotation
			JOINT LeftFoot
			{
				OFFSET -4.081074 -37.707932 -15.979700
				CHANNELS 3 Xrotation Yrotation Zrotation
				JOINT LeftToeBase
				{
					OFFSET 5.346399 -15.068900 20.645000
					CHANNELS 3 Xrotation Yrotation Zrotation
					JOINT LeftToe_End
					{
						OFFSET 2.754700 0.931300 11.300900
						CHANNELS 3 Xrotation Yrotation Zrotation
						End Site
						{
							OFFSET 0.000000 0.000000 0.000000
						}
					}
				}
			}
		}
	}
	JOINT RightUpLeg
	{
		OFFSET -15.569500 -6.655098 0.678600
		CHANNELS 3 Xrotation Yrotation Zrotation
		JOINT RightLeg
		{
			OFFSET -4.081825 -39.591045 13.023800
			CHANNELS 3 Xrotation Yrotation Zrotation
			JOINT RightFoot
			{
				OFFSET 4.081824 -37.707954 -15.979600
				CHANNELS 3 Xrotation Yrotation Zrotation
				JOINT RightToeBase
				{
					OFFSET -5.346400 -15.068900 20.645000
					CHANNELS 3 Xrotation Yrotation Zrotation
					JOINT RightToe_End
					{
						OFFSET -2.754700 0.931300 11.300900
						CHANNELS 3 Xrotation Yrotation Zrotation
						End Site
						{
							OFFSET 0.000000 0.000000 0.000000
						}
					}
				}
			}
		}
	}
}
MOTION
Frames: 4
Frame Time: 0.016667
2.195110 72.839005 -1.714689 -5.400173 -46.432077 -0.526812 9.420037 7.435533 -1.366544 2.187716 0.989899 -0.915631 0.000000 0.000000 0.000000 2.202828 0.982773 -0.894152 0.084651 13.220553 4.538680 8.920926 20.138142 -4.130233 0.000000 0.000000 -0.000002 1.117177 3.546345 -8.633308 0.000000 0.000000 0.000000 -53.487027 4.935497 -51.503004 -0.000056 -106.358080 -0.000053 1.988603 -7.706148 -15.869260 -6.141214 -11.690799 -6.761686 9.914100 42.595519 3.409888 -0.422813 8.108106 27.509103 0.000001 0.000004 -0.000003 0.255315 3.378218 -45.814337 5.654091 5.847760 -88.067455 2.162135 4.544808 -50.866369 -0.000000 0.000001 0.000002 -0.461466 3.841594 -39.722686 6.450752 5.820350 -95.892857 2.182884 4.561569 -51.127733 0.000000 -0.000001 0.000002 0.469730 4.966831 -39.799441 8.181043 5.368613 -113.503004 3.200490 5.218119 -63.022982 -0.000002 0.000002 -0.000000 -3.762428 9.063684 -45.253818 5.342542 5.829008 -85.005324 8.716833 5.103332 -119.369167 0.000002 0.000000 0.000000 3.036127 13.027203 -5.371409 0.000000 0.000000 0.000000 -48.713701 27.172835 83.457057 0.000024 105.988294 -0.000031 -8.345367 17.548091 8.775665 -7.341110 13.749653 7.412340 9.855792 -44.489086 -3.903276 -0.115795 -14.513085 -28.973874 -0.000001 0.000002 -0.000001 -0.124375 -2.384785 45.108857 4.500580 -4.654544 88.071150 1.723226 -3.618377 50.920109 -0.000003 -0.000001 -0.000002 -0.761627 -2.932905 39.031061 5.133879 -4.632764 95.881629 1.739745 -3.631697 51.181336 0.000000 0.000001 0.000004 0.154758 -4.068817 39.122671 6.509730 -4.273596 113.462877 2.549584 -4.153924 63.067337 0.000001 0.000001 -0.000001 -4.198884 -8.025515 44.637772 4.252919 -4.639641 85.014825 6.935968 -4.062627 119.322285 0.000001 0.000000 0.000000 -34.255492 5.085949 20.300787 56.771685 -7.634027 3.672685 -20.133014 -7.078566 -17.222793 -1.594031 0.000007 -0.000000 -0.000000 -0.000002 -0.000000 -19.408602 -8.980183 -34.667622 57.008007 -2.876324 -4.766488 -26.306538 -10.338639 26.246269 -0.013009 0.000007 -0.000004 0.000000 -0.000000 0.000000 
2.291733 73.011650 -1.830009 -5.729414 -46.604973 -0.528319 9.233114 7.530331 -1.365279 2.640259 1.191266 -1.060357 0.000000 0.000000 0.000000 2.654104 1.184978 -1.039337 0.357703 12.542810 4.092545 8.127884 19.984275 -4.225180 0.000000 -0.000000 -0.000000 0.981718 3.207199 -8.086435 0.000000 0.000000 0.000000 -52.083512 4.488242 -52.459674 0.000225 -105.430766 0.000228 1.015789 -5.582489 -15.643310 -6.141212 -11.690800 -6.761688 9.914094 42.595525 3.409894 -0.422816 8.108105 27.509106 0.000000 -0.000002 0.000002 0.255316 3.378220 -45.814348 5.654090 5.847761 -88.067455 2.162137 4.544812 -50.866369 -0.000001 0.000001 -0.000001 -0.461462 3.841593 -39.722690 6.450750 5.820350 -95.892857 2.182886 4.561569 -51.127733 -0.000000 0.000002 -0.000001 0.469733 4.966829 -39.799444 8.181041 5.368610 -113.503011 3.200489 5.218117 -63.022975 0.000000 -0.000000 0.000001 -3.762425 9.063687 -45.253825 5.342542 5.829006 -85.005324 8.716833 5.103330 -119.369167 -0.000001 0.000001 0.000002 3.469378 13.680574 -5.027488 0.000000 0.000000 0.000000 -48.559226 27.223988 81.465722 0.000140 106.431033 -0.000127 -8.957062 17.278912 9.150940 -7.341108 13.749653 7.412339 9.855789 -44.489086 -3.903267 -0.115796 -14.513088 -28.973874 0.000001 -0.000003 -0.000001 -0.124373 -2.384785 45.108857 4.500582 -4.654541 88.071150 1.723225 -3.618377 50.920102 0.000000 -0.000000 0.000000 -0.761625 -2.932909 39.031065 5.133882 -4.632764 95.881629 1.739745 -3.631700 51.181343 0.000001 0.000001 -0.000002 0.154759 -4.068823 39.122668 6.509733 -4.273597 113.462877 2.549583 -4.153926 63.067337 0.000000 0.000000 0.000000 -4.198882 -8.025521 44.637769 4.252922 -4.639641 85.014825 6.935969 -4.062625 119.322285 0.000000 -0.000000 -0.000001 -33.777703 5.258940 20.027096 56.340578 -7.408476 3.683134 -19.918273 -7.053055 -17.330497 -1.594031 0.000007 -0.000000 -0.000000 0.000002 0.000000 -19.423535 -8.813775 -34.839364 56.899632 -2.830861 -4.775236 -26.105026 -10.217723 26.110591 -0.013009 0.000007 -0.000003 0.000000 0.000001 -0.000000 
2.399298 73.189621 -1.933805 -5.978862 -46.814612 -0.400259 9.045773 7.777390 -1.509953 3.124197 1.480134 -1.284678 0.000000 0.000000 0.000000 3.136776 1.474859 -1.263944 0.728163 11.771776 3.506732 6.906006 19.480697 -3.816387 -0.000000 -0.000000 -0.000001 0.863350 2.875894 -7.567500 0.000000 0.000000 0.000000 -50.820412 3.482936 -53.809770 -0.000063 -104.407747 -0.000053 -0.646195 -3.189674 -15.370719 -6.141214 -11.690800 -6.761690 9.914096 42.595515 3.409891 -0.422817 8.108104 27.509108 0.000000 -0.000002 0.000000 0.255313 3.378217 -45.814344 5.654083 5.847761 -88.067448 2.162139 4.544809 -50.866365 0.000000 -0.000001 -0.000000 -0.461465 3.841590 -39.722683 6.450749 5.820351 -95.892857 2.182885 4.561566 -51.127733 0.000001 0.000000 -0.000002 0.469730 4.966828 -39.799434 8.181048 5.368610 -113.503004 3.200490 5.218116 -63.022975 0.000002 0.000001 0.000000 -3.762429 9.063685 -45.253821 5.342540 5.829005 -85.005324 8.716831 5.103331 -119.369167 -0.000000 0.000001 0.000002 3.937030 14.543570 -4.656811 0.000000 0.000000 0.000000 -48.082093 26.964812 78.972478 0.000144 107.157697 -0.000131 -9.547705 17.015690 9.282247 -7.341109 13.749655 7.412341 9.855795 -44.489089 -3.903270 -0.115792 -14.513088 -28.973874 -0.000001 -0.000003 0.000001 -0.124373 -2.384784 45.108857 4.500580 -4.654543 88.071150 1.723225 -3.618379 50.920105 0.000000 -0.000001 0.000001 -0.761625 -2.932908 39.031061 5.133885 -4.632764 95.881635 1.739745 -3.631698 51.181340 -0.000001 0.000001 -0.000001 0.154759 -4.068820 39.122675 6.509735 -4.273598 113.462877 2.549582 -4.153925 63.067337 0.000000 -0.000000 0.000000 -4.198881 -8.025517 44.637769 4.252923 -4.639641 85.014825 6.935968 -4.062625 119.322285 0.000000 0.000000 -0.000000 -33.256457 5.361671 19.676778 55.859189 -7.069298 3.615988 -19.715230 -7.016070 -17.477312 -1.594031 0.000009 -0.000000 -0.000000 0.000002 -0.000000 -19.495658 -8.533291 -35.078076 56.802975 -2.804598 -4.775883 -25.879853 -10.110405 26.012195 -0.013009 0.000008 -0.000004 -0.000000 0.000001 0.000000 
2.504400 73.383919 -2.032057 -6.276681 -46.883658 -0.003140 8.751833 8.465339 -1.836652 3.590461 1.988619 -1.614736 0.000000 0.000000 0.000000 3.602247 1.984433 -1.593469 1.274044 10.754602 2.693520 6.275624 17.988041 -3.563896 -0.000001 0.000000 -0.000001 0.788834 2.666425 -7.211887 0.000000 0.000000 0.000000 -49.654625 0.704923 -56.253291 0.000139 -102.244701 0.000148 -2.418235 -0.428783 -15.025506 -6.141213 -11.690801 -6.761684 9.914096 42.595519 3.409888 -0.422814 8.108102 27.509106 0.000001 0.000001 0.000000 0.255316 3.378217 -45.814341 5.654084 5.847761 -88.067455 2.162137 4.544812 -50.866365 0.000001 0.000001 0.000000 -0.461464 3.841592 -39.722686 6.450754 5.820350 -95.892864 2.182886 4.561568 -51.127733 -0.000002 -0.000001 0.000002 0.469732 4.966829 -39.799441 8.181039 5.368612 -113.503004 3.200489 5.218123 -63.022982 -0.000000 -0.000000 0.000000 -3.762429 9.063687 -45.253818 5.342539 5.829005 -85.005324 8.716831 5.103330 -119.369167 -0.000007 0.000000 0.000001 4.427750 15.576520 -4.226200 0.000000 0.000000 0.000000 -46.369335 25.864364 75.178294 -0.000009 108.408394 0.000014 -10.196586 16.852066 9.256427 -7.341110 13.749655 7.412336 9.855796 -44.489089 -3.903279 -0.115794 -14.513088 -28.973871 0.000001 -0.000001 -0.000001 -0.124374 -2.384783 45.108861 4.500579 -4.654540 88.071150 1.723225 -3.618378 50.920102 -0.000001 -0.000000 -0.000000 -0.761626 -2.932902 39.031061 5.133882 -4.632766 95.881635 1.739744 -3.631697 51.181340 0.000000 -0.000000 -0.000002 0.154758 -4.068817 39.122671 6.509734 -4.273599 113.462877 2.549582 -4.153923 63.067330 -0.000002 0.000001 -0.000002 -4.198883 -8.025515 44.637769 4.252920 -4.639643 85.014818 6.935969 -4.062629 119.322285 -0.000002 0.000000 -0.000001 -32.588871 5.489205 18.961370 55.207026 -6.667546 3.468861 -19.411649 -7.020062 -17.587601 -1.594031 0.000008 -0.000000 0.000000 -0.000002 -0.000000 -19.388084 -8.070278 -35.582386 56.741496 -2.749111 -4.736533 -25.682355 -10.282943 25.976425 -0.013009 0.000007 -0.000003 0.000000 -0.000001 0.000000 
